<svg width="512" height="512" viewBox="0 0 512 512" fill="none" xmlns="http://www.w3.org/2000/svg">
    <defs>
        <linearGradient id="concreteA" x1="90" y1="70" x2="390" y2="430" gradientUnits="userSpaceOnUse">
            <stop offset="0%" stop-color="#D7D7DA"/>
            <stop offset="45%" stop-color="#8E8E94"/>
            <stop offset="100%" stop-color="#4A4A4D"/>
        </linearGradient>

        <linearGradient id="concreteB" x1="120" y1="110" x2="330" y2="430" gradientUnits="userSpaceOnUse">
            <stop offset="0%" stop-color="#6B6B70"/>
            <stop offset="100%" stop-color="#2B2B2D"/>
        </linearGradient>

        <linearGradient id="orangeFace" x1="230" y1="110" x2="420" y2="380" gradientUnits="userSpaceOnUse">
            <stop offset="0%" stop-color="#FF9A2F"/>
            <stop offset="100%" stop-color="#FF6A00"/>
        </linearGradient>

        <linearGradient id="yellowStripe" x1="250" y1="100" x2="420" y2="320" gradientUnits="userSpaceOnUse">
            <stop offset="0%" stop-color="#FFE45C"/>
            <stop offset="100%" stop-color="#FFD233"/>
        </linearGradient>

        <filter id="logoShadow" x="40" y="40" width="440" height="440" filterUnits="userSpaceOnUse">
            <feDropShadow dx="0" dy="28" stdDeviation="26" flood-color="#000000" flood-opacity="0.42"/>
        </filter>
    </defs>

    <rect width="512" height="512" rx="112" fill="#050505"/>

    <g filter="url(#logoShadow)">
        <path d="M256 78L392 156L256 236L120 156L256 78Z" fill="url(#concreteA)"/>
        <path d="M120 156L256 236V388L120 310V156Z" fill="url(#concreteB)"/>
        <path d="M256 236L392 156V310L256 388V236Z" fill="url(#orangeFace)"/>

        <path d="M207 160L256 132L306 160L256 189L207 160Z" fill="#18181B" opacity="0.9"/>
        <path d="M206 262L256 233L308 262L256 294L206 262Z" fill="#18181B" opacity="0.9"/>

        <path d="M345 184L392 156V205L345 233V184Z" fill="url(#yellowStripe)"/>
        <path d="M300 336L348 308V357L300 385V336Z" fill="url(#yellowStripe)"/>

        <circle cx="183" cy="165" r="7" fill="#FFFFFF" opacity="0.18"/>
        <circle cx="291" cy="132" r="5" fill="#FFFFFF" opacity="0.18"/>
        <circle cx="168" cy="280" r="5" fill="#FFFFFF" opacity="0.14"/>
        <circle cx="305" cy="260" r="5" fill="#000000" opacity="0.16"/>
        <circle cx="228" cy="346" r="5" fill="#FFFFFF" opacity="0.12"/>
    </g>
</svg>